<svg xmlns="http://www.w3.org/2000/svg" viewBox="0 0 75.64 11.84"><g id="Layer_2" data-name="Layer 2"><g id="Layer_1-2" data-name="Layer 1"><path d="M3.74,11.65V1.55H0V.2H9V1.55H5.24v10.1Z"/><path d="M14.25,9l1.44.18a3.53,3.53,0,0,1-1.27,2,3.74,3.74,0,0,1-2.35.71,3.71,3.71,0,0,1-2.85-1.13A4.36,4.36,0,0,1,8.16,7.57,4.61,4.61,0,0,1,9.23,4.32,3.59,3.59,0,0,1,12,3.16,3.5,3.5,0,0,1,14.69,4.3a4.53,4.53,0,0,1,1,3.18c0,.09,0,.21,0,.38H9.6A3.23,3.23,0,0,0,10.36,10a2.27,2.27,0,0,0,1.72.73,2.13,2.13,0,0,0,1.31-.41A2.69,2.69,0,0,0,14.25,9ZM9.68,6.7h4.58a2.83,2.83,0,0,0-.52-1.57A2.14,2.14,0,0,0,12,4.32,2.19,2.19,0,0,0,10.4,5,2.52,2.52,0,0,0,9.68,6.7Z"/><path d="M22.83,10.62a5.14,5.14,0,0,1-1.49.94,4.34,4.34,0,0,1-1.54.28,3,3,0,0,1-2.08-.67A2.25,2.25,0,0,1,17,9.46a2.29,2.29,0,0,1,.28-1.11A2.18,2.18,0,0,1,18,7.54a3.27,3.27,0,0,1,1-.46,11,11,0,0,1,1.24-.21,12.7,12.7,0,0,0,2.48-.49c0-.19,0-.31,0-.36a1.56,1.56,0,0,0-.4-1.22,2.33,2.33,0,0,0-1.58-.47,2.36,2.36,0,0,0-1.45.35,2.13,2.13,0,0,0-.69,1.23l-1.37-.19a3.62,3.62,0,0,1,.61-1.43,2.69,2.69,0,0,1,1.24-.83,5.26,5.26,0,0,1,1.86-.3,5.07,5.07,0,0,1,1.71.25,2.33,2.33,0,0,1,1,.63,2.29,2.29,0,0,1,.43,1,8.83,8.83,0,0,1,.07,1.3V8.17a19.75,19.75,0,0,0,.09,2.48,3.06,3.06,0,0,0,.35,1H23.1A3,3,0,0,1,22.83,10.62Zm-.12-3.14A10.22,10.22,0,0,1,20.44,8a4.79,4.79,0,0,0-1.22.28,1.17,1.17,0,0,0-.55.45,1.27,1.27,0,0,0,.23,1.61,1.79,1.79,0,0,0,1.23.37,2.85,2.85,0,0,0,1.44-.35,2.26,2.26,0,0,0,.92-1A3.64,3.64,0,0,0,22.71,8Z"/><path d="M26.31,11.65V3.35h1.24V4.52A2.93,2.93,0,0,1,30,3.16a2.65,2.65,0,0,1,1.5.39,2,2,0,0,1,.82,1.07A3,3,0,0,1,34.9,3.16a2.48,2.48,0,0,1,1.88.69A2.92,2.92,0,0,1,37.44,6v5.7H36.05V6.42a3.87,3.87,0,0,0-.13-1.21,1.2,1.2,0,0,0-.49-.6,1.55,1.55,0,0,0-.84-.23A2,2,0,0,0,33.15,5a2.6,2.6,0,0,0-.57,1.87v4.82H31.19V6.26a2.44,2.44,0,0,0-.34-1.41,1.3,1.3,0,0,0-1.12-.47,2,2,0,0,0-1.08.32,1.71,1.71,0,0,0-.73.91,5.19,5.19,0,0,0-.22,1.73v4.31Z"/><path d="M44.92,7.44V5.51h4.93v4.56a6.21,6.21,0,0,1-2.08,1.24,7.65,7.65,0,0,1-2.77.53,6.19,6.19,0,0,1-3.1-.75,4.79,4.79,0,0,1-2-2.16,7.05,7.05,0,0,1-.66-3A6.72,6.72,0,0,1,40,2.7,5.07,5.07,0,0,1,42.16.57,5.86,5.86,0,0,1,44.88,0a5.42,5.42,0,0,1,3.3.89A4,4,0,0,1,49.7,3.37l-2.27.43a2.44,2.44,0,0,0-.9-1.34A2.73,2.73,0,0,0,44.88,2a3.1,3.1,0,0,0-2.39,1,4.07,4.07,0,0,0-.88,2.85,4.56,4.56,0,0,0,.89,3.06,3,3,0,0,0,2.35,1,4,4,0,0,0,1.45-.29,5.06,5.06,0,0,0,1.24-.69V7.44Z"/><path d="M51.54,11.65V.2h4.82A8.39,8.39,0,0,1,59,.5a2.67,2.67,0,0,1,1.32,1.1,3.35,3.35,0,0,1,.5,1.81,3.08,3.08,0,0,1-.75,2.13,3.56,3.56,0,0,1-2.25,1,5.71,5.71,0,0,1,1.23,1,12.86,12.86,0,0,1,1.3,1.86l1.39,2.24H59L57.34,9.16a16.5,16.5,0,0,0-1.2-1.69A1.74,1.74,0,0,0,55.45,7a3.61,3.61,0,0,0-1.15-.13h-.47v4.78ZM53.83,5h1.7a8.85,8.85,0,0,0,2-.14,1.29,1.29,0,0,0,.65-.49,1.51,1.51,0,0,0,.23-.86,1.3,1.3,0,0,0-1.17-1.38c-.19,0-.74,0-1.67,0H53.83Z"/><path d="M62.94,11.65V.2h2.29V11.65Z"/><path d="M70,11.65V2.13H66.63V.2h9V2.13H72.28v9.52Z"/></g></g></svg>