<?xml version="1.0" standalone="no"?>
<!DOCTYPE svg PUBLIC "-//W3C//DTD SVG 20010904//EN"
 "http://www.w3.org/TR/2001/REC-SVG-20010904/DTD/svg10.dtd">
<svg version="1.0" xmlns="http://www.w3.org/2000/svg"
 width="512.000000pt" height="512.000000pt" viewBox="0 0 512.000000 512.000000"
 preserveAspectRatio="xMidYMid meet">

<g transform="translate(0.000000,512.000000) scale(0.100000,-0.100000)"
fill="#000000" stroke="none">
<path d="M265 5099 c-117 -37 -208 -130 -245 -248 -20 -62 -20 -89 -20 -2291
0 -2202 0 -2229 20 -2291 38 -120 129 -211 249 -249 62 -20 89 -20 2291 -20
2202 0 2229 0 2291 20 120 38 211 129 249 249 20 62 20 89 20 2291 0 2202 0
2229 -20 2291 -38 120 -129 211 -249 249 -62 20 -88 20 -2295 19 -2182 0
-2232 -1 -2291 -20z m1819 -839 c97 -25 184 -67 259 -126 l57 -46 -62 -75
c-35 -42 -79 -94 -98 -116 l-36 -40 -46 35 c-73 56 -128 73 -238 73 -83 0
-102 -4 -151 -28 -141 -69 -219 -224 -219 -437 0 -231 80 -380 236 -440 78
-30 232 -34 282 -7 l32 18 0 119 0 120 -120 0 -120 0 0 150 0 150 280 0 280 0
0 -354 0 -355 -37 -31 c-57 -47 -187 -108 -283 -131 -72 -18 -103 -21 -215
-16 -151 6 -218 22 -335 79 -162 78 -298 249 -345 433 -43 167 -40 380 6 533
78 254 277 441 532 496 96 21 250 20 341 -4z m1402 -25 c204 -39 336 -157 373
-333 16 -76 14 -209 -5 -273 -30 -103 -107 -207 -191 -256 -24 -14 -43 -29
-43 -34 0 -5 72 -138 160 -294 88 -157 160 -287 160 -290 0 -3 -91 -4 -201 -3
l-202 3 -136 260 -136 260 -88 3 -87 3 0 -266 0 -265 -180 0 -180 0 0 750 0
750 339 0 c259 0 358 -4 417 -15z m-1266 -1965 l159 -80 -43 -92 c-39 -83
-616 -1249 -621 -1256 -2 -2 -316 147 -324 153 -3 4 661 1355 667 1355 1 0 74
-36 162 -80z m1680 -70 l0 -150 -207 -2 -208 -3 -3 -602 -2 -603 -180 0 -180
0 0 605 0 605 -200 0 -200 0 0 150 0 150 590 0 590 0 0 -150z"/>
<path d="M3032 3769 l3 -204 120 1 c135 1 180 12 232 57 47 41 63 82 63 160 0
81 -25 122 -94 156 -43 22 -66 25 -188 29 l-138 5 2 -204z"/>
</g>
</svg>
